<?xml version="1.0" encoding="UTF-8" standalone="no"?>
<!-- Created with Inkscape (http://www.inkscape.org/) -->

<svg
   width="203.83568mm"
   height="199.2225mm"
   viewBox="0 0 203.83568 199.2225"
   version="1.1"
   id="svg1"
   xmlns="http://www.w3.org/2000/svg"
   xmlns:svg="http://www.w3.org/2000/svg">
  <defs
     id="defs1" />
  <g
     id="layer1"
     transform="translate(-3.0821666,-36.270514)">
    <g
       id="g230"
       transform="matrix(0.76921437,0,0,0.76921437,722.93643,-213.51247)">
      <path
         style="fill:#008017;fill-opacity:1"
         d="m -829.55749,465.18621 -1.15979,-0.44664 0.1692,-2.79324 0.16919,-2.79324 -0.82002,-0.77863 c -0.9776,-0.92827 -2.03871,-2.92163 -2.52715,-4.74739 -0.48925,-1.82884 -0.45279,-5.94354 0.0714,-8.05288 1.30527,-5.25271 5.01982,-9.26712 8.58193,-9.27474 l 1.20828,-0.003 0.62077,2.05052 c 0.69767,2.30455 1.46299,4.15547 2.76234,6.68073 1.51364,2.94172 1.86084,4.3385 1.49015,5.99491 -0.77435,3.46013 -3.31468,7.01047 -5.98839,8.36929 l -1.28398,0.65254 -0.69945,2.74423 c -0.44352,1.74012 -0.83396,2.76244 -1.06706,2.794 -0.20218,0.0274 -0.88951,-0.15123 -1.52739,-0.39688 z"
         id="path139" />
      <path
         style="fill:#000000"
         d="m -825.85779,466.79009 c 0.0145,-0.40018 0.11441,-1.02526 0.22201,-1.38906 0.18511,-0.62587 0.21208,-0.60452 0.50132,0.39688 0.42223,1.46186 0.38916,1.71979 -0.22054,1.71979 -0.40727,0 -0.52309,-0.1676 -0.50279,-0.72761 z"
         id="path138" />
      <path
         style="fill:#ff7d29;fill-opacity:1"
         d="m -814.90396,523.44582 c -9.67778,-0.78579 -17.72388,-3.4468 -24.60343,-8.13686 -3.89036,-2.65221 -6.21271,-5.21307 -8.07737,-8.90695 -4.02351,-7.97052 -1.14405,-18.69505 5.63641,-20.99279 1.57368,-0.53328 2.81924,-0.54201 4.77188,-0.0334 2.87395,0.74857 4.25259,1.6686 8.80245,5.87427 4.17644,3.86052 6.42204,5.56754 8.97215,6.82033 3.11156,1.52861 5.68988,2.0602 9.92187,2.04567 9.26875,-0.0318 17.31355,-3.72045 22.80325,-10.45552 4.89048,-5.99992 5.84826,-14.10467 2.17407,-18.39713 -3.10027,-3.62197 -6.80632,-4.2128 -16.70931,-2.66385 -6.45354,1.00942 -11.88372,1.08942 -17.46959,0.25736 -1.93216,-0.28781 -3.61301,-0.58509 -3.73521,-0.66061 -0.1222,-0.0755 -0.29418,-0.64607 -0.38216,-1.26787 -0.088,-0.6218 -0.38927,-2.14259 -0.6695,-3.37951 l -0.50952,-2.24896 0.56826,-0.37717 c 0.31254,-0.20744 1.35758,-1.17908 2.32232,-2.15918 1.9739,-2.00535 3.40403,-4.66088 4.12265,-7.65512 l 0.42869,-1.78619 1.67174,1.41818 c 2.99443,2.54025 6.24141,3.76678 10.60184,4.00478 4.38358,0.23926 8.42009,-0.65913 12.77414,-2.8431 6.68494,-3.35314 10.22133,-8.13904 11.38611,-15.40916 0.35743,-2.23094 0.24268,-9.91357 -0.26968,-18.05554 -0.15567,-2.47385 -0.28956,-7.29588 -0.29754,-10.71562 -0.0272,-11.67662 1.287,-17.96653 4.54698,-21.76198 0.59371,-0.69123 1.18152,-1.25677 1.30625,-1.25677 0.12473,0 -0.19377,0.91021 -0.70776,2.02268 -1.52844,3.30811 -2.1993,6.51997 -2.20254,10.54502 -0.005,5.74002 1.10041,10.38716 3.63415,15.28327 2.6978,5.21311 6.0424,8.71272 10.3785,10.8595 l 2.24219,1.1101 1.24113,2.9404 c 2.56147,6.06846 5.14087,14.24615 7.83023,24.82481 1.64635,6.47595 1.65918,6.64548 0.99245,13.11213 -1.14503,11.10574 -3.33884,19.3222 -7.29627,27.32669 -1.49483,3.02352 -1.77992,3.51729 -4.08148,7.06914 -8.18226,12.62719 -21.5903,20.73878 -38.2797,23.15844 -2.70458,0.39211 -11.29885,0.69674 -13.83865,0.49052 z"
         id="path137" />
      <path
         style="fill:#4d4d4d;fill-opacity:1"
         d="m -754.12993,406.85866 c -0.31884,-0.38417 -0.62864,-1.56359 -3.48688,-13.27473 -1.02765,-4.2106 -1.83388,-7.75937 -1.79162,-7.88616 0.0423,-0.12678 0.52911,0.1631 1.08189,0.64419 l 1.00506,0.8747 2.24484,9.10326 c 1.23466,5.0068 2.20892,9.47067 2.16501,9.91971 -0.0869,0.88892 -0.72517,1.21323 -1.2183,0.61903 z"
         id="path149" />
      <path
         style="fill:#4d4d4d;fill-opacity:1"
         d="m -758.68223,407.65572 c -0.21765,-0.50718 -6.08319,-24.05434 -6.08319,-24.4209 0,-0.22169 1.43926,0.19531 1.75666,0.50896 0.46303,0.45754 5.98823,23.33452 5.78804,23.96525 -0.23019,0.72527 -1.14167,0.69202 -1.46151,-0.0533 z"
         id="path148" />
      <path
         style="fill:#ef5036;fill-opacity:1"
         d="m -843.61125,417.92659 c -1.99128,-0.55408 -3.48387,-1.46814 -5.16591,-3.16361 -2.6552,-2.6764 -3.78392,-6.00121 -3.30374,-9.73165 0.32156,-2.49815 0.67273,-3.36157 2.21546,-5.4472 1.80226,-2.43648 4.52226,-4.05311 7.66378,-4.55498 5.22076,-0.83402 10.6822,2.32633 12.63271,7.31012 0.80896,2.06698 0.87645,5.89163 0.14168,8.02843 -1.2331,3.58601 -4.22953,6.39619 -8.05953,7.55858 -1.49006,0.45222 -4.49978,0.45238 -6.12445,3.1e-4 z"
         id="path147" />
      <path
         style="fill:#ef5036;fill-opacity:1"
         d="m -752.01511,421.5419 c -0.33613,-0.91195 -0.85323,-1.88363 -1.14912,-2.15929 -0.29589,-0.27566 -1.58772,-0.76059 -2.87075,-1.07761 -1.51895,-0.37532 -2.51385,-0.77581 -2.85183,-1.148 -0.37242,-0.41011 -1.53093,-4.68274 -4.10075,-15.12368 -1.96992,-8.00364 -3.65106,-15.043 -3.73586,-15.64301 -0.18034,-1.27598 0.3651,-3.10506 0.96078,-3.22191 0.32612,-0.064 1.00349,2.33375 3.46549,12.26691 1.90031,7.66696 3.23138,12.53563 3.51194,12.84565 0.62576,0.69146 1.3343,0.62381 1.85935,-0.17751 0.42544,-0.64931 0.39392,-0.87735 -0.7772,-5.6224 -2.65256,-10.74745 -4.41653,-18.05831 -4.41653,-18.30454 0,-0.14222 0.41169,-0.0623 0.91486,0.17768 l 0.91485,0.43626 2.53724,10.47352 c 1.39549,5.76044 2.73998,10.89024 2.98776,11.39956 0.77883,1.60093 2.43488,1.31996 2.43488,-0.41311 0,-0.48261 -0.89705,-4.47239 -1.99344,-8.86618 -1.09639,-4.39378 -1.93934,-8.04279 -1.87322,-8.10891 0.2018,-0.2018 0.96946,1.13915 1.74966,3.05632 1.05793,2.59965 1.78711,5.74469 2.24932,9.70167 0.42024,3.59765 1.02701,17.1998 0.8793,19.71146 l -0.0856,1.45521 z"
         id="path146" />
      <path
         style="fill:#ef5036;fill-opacity:1"
         d="m -824.57368,434.24634 c -0.007,-0.10914 -0.81414,-3.38965 -1.794,-7.29003 -0.97986,-3.90037 -1.72563,-7.14752 -1.65727,-7.21588 0.0684,-0.0684 0.78955,0.58137 1.60264,1.44385 l 1.47835,1.56814 0.3243,3.40173 c 0.17837,1.87095 0.50261,4.33362 0.72053,5.47258 0.21792,1.13897 0.39622,2.23897 0.39622,2.44445 0,0.37534 -1.04749,0.5467 -1.07077,0.17516 z"
         id="path145" />
      <path
         style="fill:#ef5036;fill-opacity:1"
         d="m -830.20336,428.93837 c -0.8259,-3.34574 -1.50164,-6.26672 -1.50164,-6.49108 0,-0.43216 0.96446,-1.23167 1.48579,-1.23167 0.37916,0 3.64087,12.97083 3.3379,13.27381 -0.11551,0.11551 -0.57235,0.28248 -1.01521,0.37105 l -0.8052,0.16104 z"
         id="path144" />
      <path
         style="fill:#ef5036;fill-opacity:1"
         d="m -831.79822,436.70014 c -0.31932,-0.83214 -3.08178,-12.33416 -3.08178,-12.83158 0,-0.34318 0.23435,-0.58501 0.67378,-0.6953 0.37058,-0.093 0.71119,-0.12505 0.75691,-0.0712 0.14785,0.17416 3.06791,12.25468 3.06756,12.69077 -3.1e-4,0.39229 -0.7799,1.29778 -1.11734,1.29778 -0.0821,0 -0.21672,-0.17572 -0.29913,-0.39048 z"
         id="path143" />
      <path
         style="fill:#4d4d4d;fill-opacity:1"
         d="m -838.33986,448.58693 c -0.666,-0.2052 -1.38936,-0.58386 -1.60748,-0.84147 -0.21811,-0.25761 -0.72532,-1.83761 -1.12714,-3.51109 -0.40182,-1.67349 -1.60273,-6.61459 -2.6687,-10.98021 -1.06597,-4.36563 -2.00617,-8.32948 -2.08934,-8.80857 l -0.15121,-0.87106 0.9878,0.17856 c 0.5433,0.0982 1.02174,0.20662 1.06322,0.24091 0.0415,0.0343 0.96375,3.65689 2.0495,8.05019 1.08575,4.39331 2.09781,8.21899 2.24901,8.5015 0.1512,0.28252 0.50884,0.51368 0.79476,0.51368 0.91473,0 0.8115,-0.79229 -1.06871,-8.20209 -0.46157,-1.81901 -1.10578,-4.46815 -1.43157,-5.88698 l -0.59236,-2.57968 h 0.84582 c 0.98387,0 0.65693,-0.93858 3.04133,8.73125 0.87913,3.56526 1.76306,6.6474 1.96428,6.8492 0.54158,0.54311 1.20081,0.16433 1.1997,-0.68934 -5.2e-4,-0.40475 -0.77443,-3.82135 -1.71979,-7.59245 -0.94536,-3.77109 -1.71884,-7.01555 -1.71884,-7.20989 0,-0.45505 1.56774,-0.47589 1.70227,-0.0226 0.054,0.1819 0.89182,3.5866 1.86184,7.56599 1.53062,6.27921 1.715,7.29309 1.39539,7.67291 -1.01686,1.20846 -2.32943,5.07269 -2.73247,8.04443 -0.19122,1.40991 -0.29401,1.44865 -2.24731,0.84684 z"
         id="path142" />
      <path
         style="fill:#157e28;fill-opacity:1;fill-rule:nonzero"
         d="m -751.78428,452.76718 c -2.05655,-8.60168 -5.22624,-18.7547 -7.90902,-25.33386 l -1.29466,-3.175 -2.11044,-1.05833 c -2.6834,-1.34566 -4.13972,-2.38078 -5.85466,-4.16138 -3.95503,-4.10644 -6.80392,-9.93004 -7.86593,-16.07924 -0.54886,-3.17797 -0.41433,-9.65439 0.24945,-12.00855 1.18726,-4.21078 2.82409,-6.97694 4.47686,-7.56566 0.46473,-0.16554 1.90677,-0.37235 3.20452,-0.45959 2.25143,-0.15135 2.3495,-0.13548 2.14051,0.34644 -0.12047,0.27779 -0.26213,1.3385 -0.31479,2.35715 -0.0862,1.66719 0.27173,3.32764 3.58527,16.6325 2.64761,10.63094 3.82248,14.92186 4.18488,15.28426 0.27711,0.27711 1.62957,0.80163 3.00546,1.1656 1.54404,0.40844 2.66888,0.86134 2.93858,1.18317 0.24032,0.28679 0.82472,1.56452 1.29865,2.83941 0.86113,2.31646 0.86182,2.32237 1.06238,9.06485 0.27324,9.18584 0.29289,23.54791 0.0322,23.54791 -0.11687,0 -0.49005,-1.16085 -0.82927,-2.57968 z"
         id="path141" />
      <path
         style="fill:#ff7d29;fill-opacity:1"
         d="m -834.49037,463.92846 c -5.30863,-2.82262 -9.44894,-6.95361 -12.01477,-11.98771 -0.89985,-1.76549 -1.83815,-4.87984 -2.44138,-8.10326 -0.44519,-2.37892 -0.56888,-4.36269 -0.67731,-10.86292 -0.12911,-7.73966 -0.11731,-7.98619 0.44088,-9.21149 0.31545,-0.69245 0.71586,-1.21218 0.88981,-1.15495 0.17395,0.0572 0.34995,0.69006 0.39112,1.40629 0.0412,0.71623 0.48468,2.98092 0.98558,5.03265 3.66484,15.01144 4.42659,18.06558 4.69588,18.82749 0.49236,1.39306 1.58544,2.22716 3.5683,2.72286 l 1.78789,0.44697 0.61328,1.68822 c 0.94861,2.61132 3.48776,10.93286 3.48776,11.43044 0,0.59429 -0.22583,0.56361 -1.72704,-0.23459 z"
         id="path140" />
    </g>
  </g>
</svg>
